HIERARCHY
ROOT Hips
{
	OFFSET 0.00000 0.00000 0.00000
	CHANNELS 6 Xposition Yposition Zposition Zrotation Yrotation Xrotation 
	JOINT LHipJoint
	{
		OFFSET 0 0 0
		CHANNELS 3 Zrotation Yrotation Xrotation
		JOINT LeftUpLeg
		{
			OFFSET 1.62964 -1.40469 0.78906
			CHANNELS 3 Zrotation Yrotation Xrotation
			JOINT LeftLeg
			{
				OFFSET 2.29640 -6.30932 0.00000
				CHANNELS 3 Zrotation Yrotation Xrotation
				JOINT LeftFoot
				{
					OFFSET 2.29451 -6.30412 0.00000
					CHANNELS 3 Zrotation Yrotation Xrotation
					JOINT LeftToeBase
					{
						OFFSET 0.03611 -0.09921 1.56387
						CHANNELS 3 Zrotation Yrotation Xrotation
						End Site
						{
							OFFSET 0.00000 -0.00000 0.80291
						}
					}
				}
			}
		}
	}
	JOINT RHipJoint
	{
		OFFSET 0 0 0
		CHANNELS 3 Zrotation Yrotation Xrotation
		JOINT RightUpLeg
		{
			OFFSET -1.73712 -1.40469 0.78906
			CHANNELS 3 Zrotation Yrotation Xrotation
			JOINT RightLeg
			{
				OFFSET -2.28137 -6.26801 0.00000
				CHANNELS 3 Zrotation Yrotation Xrotation
				JOINT RightFoot
				{
					OFFSET -2.28681 -6.28298 0.00000
					CHANNELS 3 Zrotation Yrotation Xrotation
					JOINT RightToeBase
					{
						OFFSET -0.15927 -0.43759 1.61103
						CHANNELS 3 Zrotation Yrotation Xrotation
						End Site
						{
							OFFSET -0.00000 -0.00000 0.84630
						}
					}
				}
			}
		}
	}
	JOINT LowerBack
	{
		OFFSET 0 0 0
		CHANNELS 3 Zrotation Yrotation Xrotation
		JOINT Spine
		{
			OFFSET -0.04227 2.04338 -0.00225
			CHANNELS 3 Zrotation Yrotation Xrotation
			JOINT Spine1
			{
				OFFSET -0.02148 2.04482 -0.04273
				CHANNELS 3 Zrotation Yrotation Xrotation
				JOINT Neck
				{
					OFFSET 0 0 0
					CHANNELS 3 Zrotation Yrotation Xrotation
					JOINT Neck1
					{
						OFFSET 0.09180 1.44629 0.19359
						CHANNELS 3 Zrotation Yrotation Xrotation
						JOINT Head
						{
							OFFSET 0.00887 1.40645 0.14750
							CHANNELS 3 Zrotation Yrotation Xrotation
							End Site
							{
								OFFSET -0.00669 1.50671 0.03707
							}
						}
					}
				}
				JOINT LeftShoulder
				{
					OFFSET 0 0 0
					CHANNELS 3 Zrotation Yrotation Xrotation
					JOINT LeftArm
					{
						OFFSET 2.17674 1.86763 -0.06520
						CHANNELS 3 Zrotation Yrotation Xrotation
						JOINT LeftForeArm
						{
							OFFSET 4.65776 -0.00000 0.00000
							CHANNELS 3 Zrotation Yrotation Xrotation
							JOINT LeftHand
							{
								OFFSET 3.55539 -0.00000 0.00000
								CHANNELS 3 Zrotation Yrotation Xrotation
								JOINT LeftFingerBase
								{
									OFFSET 0 0 0
									CHANNELS 3 Zrotation Yrotation Xrotation
									JOINT LeftHandIndex1
									{
										OFFSET 0.70726 -0.00000 0.00000
										CHANNELS 3 Zrotation Yrotation Xrotation
										End Site
										{
											OFFSET 0.57022 -0.00000 0.00000
										}
									}
								}
								JOINT LThumb
								{
									OFFSET 0 0 0
									CHANNELS 3 Zrotation Yrotation Xrotation
									End Site
									{
										OFFSET 0.57892 -0.00000 0.57892
									}
								}
							}
						}
					}
				}
				JOINT RightShoulder
				{
					OFFSET 0 0 0
					CHANNELS 3 Zrotation Yrotation Xrotation
					JOINT RightArm
					{
						OFFSET -2.80694 1.55459 -0.32496
						CHANNELS 3 Zrotation Yrotation Xrotation
						JOINT RightForeArm
						{
							OFFSET -4.71925 -0.00000 -0.00000
							CHANNELS 3 Zrotation Yrotation Xrotation
							JOINT RightHand
							{
								OFFSET -3.56990 -0.00000 0.00000
								CHANNELS 3 Zrotation Yrotation Xrotation
								JOINT RightFingerBase
								{
									OFFSET 0 0 0
									CHANNELS 3 Zrotation Yrotation Xrotation
									JOINT RightHandIndex1
									{
										OFFSET -0.50776 -0.00000 0.00000
										CHANNELS 3 Zrotation Yrotation Xrotation
										End Site
										{
											OFFSET -0.40937 -0.00000 0.00000
										}
									}
								}
								JOINT RThumb
								{
									OFFSET 0 0 0
									CHANNELS 3 Zrotation Yrotation Xrotation
									End Site
									{
										OFFSET -0.41562 -0.00000 0.41562
									}
								}
							}
						}
					}
				}
			}
		}
	}
}
MOTION
Frames: 6
Frame Time: .0083333
9.2175 16.3489 10.6475 0 0 0 0 0 0 -21 0 0 0 0 0 0 0 0 0 0 0 0 0 0 21 0 0 0 0 0 0 0 0 0 0 0 0 0 0 0 0 0 0 0 0 0 0 -16 0 0 21 0 0 11 0 0 0 -8 0 0 0 0 0 0 0 0 0 0 0 0 0 0 0 0 0 0 0 0 8 0 0 0 0 0 0 0 0 0 0 0 0 0 0 0 0 0
9.2175 16.3489 10.6475 179.6620 0.9113 -149.9500 0.0000 0.0000 0.0000 -14.2068 -19.5750 -24.4102 0.1997 2.8773 7.9374 0.1884 0.4900 -8.3907 4.6748 -13.0080 -39.3984 0.0000 0.0000 0.0000 18.3002 15.7897 -23.0377 -0.0782 -1.8039 4.9641 -0.9158 -4.2176 -20.0751 -2.0289 8.9260 -25.5643 -6.1315 -0.5867 -29.9694 -0.5823 2.3275 -2.6059 3.6658 1.1631 12.6433 -3.5764 -0.1330 -0.1087 6.9350 -1.0065 8.7536 2.8857 -0.5696 2.9092 -0.0000 0.0000 0.0000 -86.1404 1.4403 19.2430 13.7156 -22.3266 -2.7191 -0.0000 0.0000 -1.8209 22.9447 -15.5826 -6.4878 -7.1250 0.0000 -0.0000 -3.1606 13.1504 2.3624 -0.0000 0.0000 0.0000 92.7182 0.2212 22.7664 -24.5616 35.7525 -8.0324 0.0000 -0.0000 -5.5006 -6.7117 -55.6436 5.5489 7.1250 -0.0000 -0.0000 78.3423 -74.3334 -61.9891
9.2165 16.3477 10.6464 179.6030 0.9516 -149.9780 0.0000 0.0000 0.0000 -14.2848 -19.6367 -24.3571 0.2002 2.8808 7.9471 0.1885 0.5198 -8.4062 4.7670 -13.1165 -39.8063 0.0000 0.0000 0.0000 18.2191 15.7947 -23.0217 -0.0794 -1.8173 5.0010 -0.9222 -4.1818 -20.1147 -2.0000 8.8660 -25.3771 -6.2057 -0.6215 -29.9646 -0.5767 2.2993 -2.5618 3.7018 1.1400 12.6904 -3.5886 -0.1156 -0.1056 6.9293 -0.9818 8.7506 2.8865 -0.5579 2.9061 0.0000 0.0000 0.0000 -86.1576 1.4007 19.2472 13.7303 -22.3478 -2.7247 -0.0000 0.0000 -1.7904 22.9561 -15.3666 -6.4043 -7.1250 0.0000 -0.0000 -3.1390 13.3801 2.3310 0.0000 0.0000 0.0000 92.5847 0.1730 22.5022 -24.4232 35.6085 -7.9516 0.0000 -0.0000 -5.5040 -8.5833 -55.9346 7.1271 7.1250 -0.0000 -0.0000 79.0011 -75.0469 -63.4470
9.2161 16.3488 10.6465 179.6080 0.9621 -150.0140 0.0000 0.0000 0.0000 -14.2893 -19.6268 -24.3176 0.1995 2.8762 7.9344 0.1847 0.5591 -8.3409 4.8625 -13.2273 -40.2253 0.0000 0.0000 0.0000 18.2191 15.8146 -22.9762 -0.0798 -1.8226 5.0156 -0.9293 -4.1310 -20.1522 -1.9759 8.8157 -25.2204 -6.2275 -0.6244 -29.9198 -0.5650 2.2889 -2.5213 3.7218 1.1275 12.7160 -3.5634 -0.1177 -0.1262 6.9178 -0.9838 8.7539 2.8780 -0.5578 2.9107 0.0000 -0.0000 0.0000 -86.1582 1.3283 19.2935 13.7367 -22.3570 -2.7271 -0.0000 0.0000 -1.7956 22.9058 -15.2130 -6.3269 -7.1250 0.0000 -0.0000 -3.1632 13.5506 2.3376 0.0000 -0.0000 0.0000 92.4592 0.1179 22.2991 -24.3576 35.5401 -7.9134 0.0000 -0.0000 -5.4252 -7.0686 -56.4855 5.9026 7.1250 -0.0000 -0.0000 81.2983 -74.5571 -65.1447
9.2143 16.3494 10.6452 179.6490 1.0038 -150.0100 0.0000 0.0000 0.0000 -14.2531 -19.6234 -24.3065 0.1994 2.8756 7.9326 0.1845 0.6452 -8.3734 4.8151 -13.1725 -40.0177 0.0000 0.0000 0.0000 18.2262 15.9201 -22.9442 -0.0799 -1.8238 5.0191 -0.9325 -4.1331 -20.1846 -1.9782 8.8206 -25.2356 -6.1803 -0.5941 -29.8711 -0.5674 2.3083 -2.5404 3.6994 1.1411 12.6729 -3.5590 -0.1265 -0.1424 6.9167 -0.9961 8.7640 2.8768 -0.5635 2.9179 -0.0000 -0.0000 0.0000 -86.1349 1.3350 19.3809 13.7351 -22.3547 -2.7265 -0.0000 0.0000 -1.9245 22.8892 -15.4330 -6.4103 -7.1250 0.0000 -0.0000 -3.1883 13.3174 2.3719 -0.0000 -0.0000 0.0000 92.3298 0.0421 22.0969 -24.1634 35.3366 -7.8009 0.0000 -0.0000 -5.3124 -6.3620 -56.9714 5.3404 7.1250 -0.0000 -0.0000 83.1607 -74.3421 -66.7503
9.2118 16.3476 10.6429 179.6480 1.1047 -149.9660 0.0000 0.0000 0.0000 -14.2895 -19.6037 -24.3110 0.1980 2.8657 7.9049 0.1859 0.7134 -8.4351 4.7103 -13.0499 -39.5557 0.0000 0.0000 0.0000 18.1845 15.9348 -23.0219 -0.0808 -1.8338 5.0466 -0.9331 -4.0628 -20.1485 -1.9833 8.8312 -25.2688 -6.1692 -0.5743 -29.8599 -0.5835 2.3394 -2.5980 3.6863 1.1646 12.6009 -3.5743 -0.1253 -0.1419 6.9168 -0.9953 8.7749 2.8798 -0.5638 2.9216 -0.0000 -0.0000 0.0000 -86.1428 1.4012 19.3033 13.7155 -22.3265 -2.7191 -0.0000 0.0000 -1.8822 22.8302 -15.7311 -6.5115 -7.1250 0.0000 -0.0000 -3.2472 13.0060 2.4371 -0.0000 -0.0000 0.0000 92.2007 -0.0630 21.8676 -23.9097 35.0687 -7.6546 0.0000 -0.0000 -5.3331 -8.8743 -53.6857 7.1708 7.1250 -0.0000 -0.0000 70.6332 -74.7380 -55.1258
